<?xml version="1.0" encoding="UTF-8"?>
<!DOCTYPE svg PUBLIC "-//W3C//DTD SVG 1.1//EN" "http://www.w3.org/Graphics/SVG/1.1/DTD/svg11.dtd">
<!-- Creator: CorelDRAW -->
<svg xmlns="http://www.w3.org/2000/svg" xml:space="preserve" width="65px" height="65px" version="1.1" style="shape-rendering:geometricPrecision; text-rendering:geometricPrecision; image-rendering:optimizeQuality; fill-rule:evenodd; clip-rule:evenodd"
viewBox="0 0 65 65"
 xmlns:xlink="http://www.w3.org/1999/xlink"
 xmlns:xodm="http://www.corel.com/coreldraw/odm/2003">
 <defs>
  <style type="text/css">
   <![CDATA[
    .fil2 {fill:#11ACA8}
    .fil0 {fill:#E6E6E6}
    .fil1 {fill:#11ACA8;fill-rule:nonzero}
   ]]>
  </style>
 </defs>
 <g id="Layer_x0020_1">
  <metadata id="CorelCorpID_0Corel-Layer"/>
  <circle class="fil0" cx="36.89" cy="33" r="8.92"/>
  <path class="fil1" d="M24.68 40.06l0.02 0.07 2.32 0c0.2,0.27 0.41,0.54 0.63,0.79l-2.65 0 3.19 8.36c0.87,-1.96 1.66,-3.94 2.33,-5.93 1.83,1.11 3.98,1.75 6.28,1.75 0.09,0 0.18,0 0.27,0 -1.29,2.9 -3,5.86 -5.25,9.07 -1.3,0 -4.73,0 -6.02,0 0.65,-1.24 1.27,-2.48 1.86,-3.73l-3.63 -9.52 -5.07 0 0 -18.07 -1.81 0 0 -7.75 1.81 0 0 -1.82 7.76 0 0 1.82 10.08 0 0 2.79 3.97 0c0.03,1.27 0.05,2.5 0.07,3.69 -1.27,-0.45 -2.62,-0.69 -4.04,-0.69 -0.26,0 -0.51,0.01 -0.77,0.02l0 -3.02 0 -2 -16.29 0 0 24.24 4.77 0 0.17 -0.07zm8.17 -25.91l0 -1.35 6.44 0 0 4.15 1.12 0 0 -4.15 6.17 0 1.27 -1.97 -22.45 0 1.27 1.97 5.06 0 0 1.35 1.12 0z"/>
  <g id="_1994866944864">
   <path class="fil1" d="M39.07 29.61c-2.81,1.99 -7.65,1.98 -7.55,6.31 -0.59,-3.45 3.3,-6.16 6.01,-8.24 2.17,-1.67 3.61,0.47 1.54,1.93z"/>
   <path class="fil1" d="M40.57 32.24c-3.29,1.02 -7.8,-0.47 -9.05,3.68 0.51,-3.46 4.97,-4.86 8.18,-5.99 2.6,-0.91 3.29,1.57 0.87,2.31z"/>
   <path class="fil1" d="M41.4 35.37c-3.44,0.12 -7.6,-3.13 -9.88,0.55 1.39,-3.21 6.24,-2.76 9.64,-3.02 2.74,-0.2 2.77,2.38 0.24,2.47z"/>
   <circle class="fil2" transform="matrix(1.03256 0.596149 -0.59615 1.03256 31.5226 35.9154)" r="0.65"/>
  </g>
 </g>
</svg>
